# xmcd
#
# Track frame offsets: 
#        150
#        13904
#        26276
#
# Disc length: 602 seconds
#
# Revision: 0
# Processed by: cddbd v1.5.2PL0 Copyright (c) Steve Scherf et al.
# Submitted via: ExactAudioCopy v0.99pb4
#
DISCID=18025803
DTITLE=Lucky Lips - In the Graveyard EP
DYEAR=2008
DGENRE=Bluegrass
TTITLE0=In the Graveyard
TTITLE1=It'll eat you up
TTITLE2=Bound to Stay
EXTD=
EXTT0=
EXTT1=
EXTT2=
PLAYORDER=
